<?xml version="1.0" encoding="UTF-8"?>
<svg version="1.1" xmlns="http://www.w3.org/2000/svg" width="132" height="132">
<path d="M0 0 C1.56547073 0.57794815 1.56547073 0.57794815 3.16256714 1.16757202 C5.36171367 1.98391486 7.55863244 2.80628122 9.75341797 3.63427734 C13.10528046 4.89396264 16.46773202 6.12163696 19.83203125 7.34765625 C21.97207294 8.14651463 24.11142094 8.9472343 26.25 9.75 C27.2521756 10.11276031 28.2543512 10.47552063 29.28689575 10.84927368 C38.47687171 14.3754705 38.47687171 14.3754705 41.21008301 18.26672363 C43.11849896 23.16331326 42.72010288 28.56318371 42.69140625 33.73828125 C42.69856155 35.04495255 42.70571686 36.35162384 42.71308899 37.69789124 C42.72493887 40.4576524 42.71831491 43.21660556 42.69897461 45.97631836 C42.67610243 49.49853169 42.70285832 53.01833001 42.74403667 56.54030514 C42.77588905 59.91894544 42.76261059 63.29700113 42.75390625 66.67578125 C42.77682991 68.5619944 42.77682991 68.5619944 42.80021667 70.48631287 C42.6705962 80.24879426 42.6705962 80.24879426 39.40820312 84.37280273 C36.17970276 87.44758348 32.60915981 89.44828619 28.57421875 91.28125 C27.87632736 91.61462372 27.17843597 91.94799744 26.45939636 92.29147339 C24.24828368 93.34306536 22.02707751 94.37093032 19.8046875 95.3984375 C18.33456276 96.0935235 16.86515488 96.79012779 15.39648438 97.48828125 C12.55920835 98.83383302 9.71453983 100.16116804 6.86181641 101.47363281 C4.48403475 102.56919402 2.14584031 103.69965924 -0.19384766 104.87792969 C-1.11858887 105.33586914 -2.04333008 105.79380859 -2.99609375 106.265625 C-4.14331909 106.85512939 -4.14331909 106.85512939 -5.3137207 107.45654297 C-13.30124225 109.87849558 -19.84287342 107.64131775 -27.265625 104.4765625 C-28.21291473 104.08652039 -29.16020447 103.69647827 -30.13619995 103.2946167 C-32.12755633 102.47136431 -34.11582229 101.64060041 -36.10107422 100.80273438 C-39.12473894 99.52684428 -42.15686707 98.27321371 -45.19140625 97.0234375 C-47.13334418 96.21742562 -49.07476858 95.41017514 -51.015625 94.6015625 C-51.9137088 94.22847961 -52.8117926 93.85539673 -53.73709106 93.4710083 C-66.93212302 87.89018175 -66.93212302 87.89018175 -69.17619324 84.51737976 C-70.21731531 81.70814009 -70.28360569 79.38777556 -70.31420898 76.39086914 C-70.33019638 75.20606461 -70.34618378 74.02126007 -70.36265564 72.80055237 C-70.36801834 71.52445602 -70.37338104 70.24835968 -70.37890625 68.93359375 C-70.38793472 67.61934921 -70.3969632 66.30510468 -70.40626526 64.95103455 C-70.42273397 62.17118883 -70.43045167 59.39146326 -70.43334961 56.61157227 C-70.43873688 53.05587376 -70.47643729 49.5013095 -70.52209377 45.94593143 C-70.5590489 42.54599054 -70.560379 39.14622868 -70.56640625 35.74609375 C-70.58593857 34.47202164 -70.60547089 33.19794952 -70.62559509 31.88526917 C-70.58076984 23.12369639 -70.58076984 23.12369639 -67.89672852 19.140625 C-64.74221665 17.10177544 -61.66381029 15.44698302 -58.2265625 13.92578125 C-57.57586792 13.63396469 -56.92517334 13.34214813 -56.25476074 13.04148865 C-54.87616108 12.42414925 -53.49545042 11.81150491 -52.11279297 11.20330811 C-50.03514125 10.28550992 -47.9677168 9.34790152 -45.90234375 8.40283203 C-42.47365031 6.8355908 -39.03452608 5.2934663 -35.58886719 3.76391602 C-34.18487918 3.13785332 -32.78322217 2.5065404 -31.38378906 1.87036133 C-29.31588639 0.93103394 -27.24106997 0.00883114 -25.1640625 -0.91015625 C-24.23889832 -1.33656654 -24.23889832 -1.33656654 -23.29504395 -1.77159119 C-14.7234249 -5.5045695 -8.2774918 -3.10910179 0 0 Z " fill="#212222" transform="translate(81.0078125,15.7265625)"/>
<path d="M0 0 C5.18610769 0.34365774 9.74007876 2.31609105 14.5 4.25 C21.26711942 6.95989727 28.04189408 9.43374858 34.984375 11.6640625 C38.65497391 13.29015684 41.68563882 14.66953725 44 18 C44.8709948 22.14727448 44.74530183 26.22635677 44.65625 30.44921875 C44.65063049 32.26266533 44.65063049 32.26266533 44.64489746 34.11274719 C44.6314679 36.66390035 44.603661 39.21501271 44.5625 41.76586914 C44.50006388 45.68349188 44.48054624 49.59950669 44.46875 53.51757812 C44.45041473 55.99481142 44.4296647 58.47202826 44.40625 60.94921875 C44.39350037 62.71479378 44.39350037 62.71479378 44.38049316 64.51603699 C44.36127808 65.60088882 44.34206299 66.68574066 44.32226562 67.8034668 C44.30860962 68.76101364 44.29495361 69.71856049 44.28088379 70.7051239 C44 73 44 73 42 75 C37.16601003 74.63501081 32.84158169 72.96474925 28.37109375 71.19921875 C27.30291161 70.78274834 27.30291161 70.78274834 26.21315002 70.35786438 C24.71522317 69.77160395 23.21848829 69.18228972 21.72290039 68.59008789 C19.445007 67.69046479 17.16138646 66.80669023 14.87695312 65.92382812 C13.41629182 65.34991143 11.9559926 64.77507216 10.49609375 64.19921875 C9.81888779 63.93864182 9.14168182 63.67806488 8.44395447 63.40959167 C0.63717957 60.28245354 0.63717957 60.28245354 -2 57 C-2.72014781 52.88271901 -2.62783272 48.81766262 -2.55859375 44.6484375 C-2.55626236 43.43805817 -2.55393097 42.22767883 -2.55152893 40.98062134 C-2.54178809 38.42353258 -2.51999367 35.86646554 -2.48706055 33.30957031 C-2.43760254 29.38314091 -2.42557784 25.4579629 -2.41992188 21.53125 C-2.40583846 19.04946576 -2.38963499 16.56769244 -2.37109375 14.0859375 C-2.36573105 12.90575043 -2.36036835 11.72556335 -2.35484314 10.50961304 C-2.33885574 9.42153351 -2.32286835 8.33345398 -2.30639648 7.21240234 C-2.29575668 6.25183929 -2.28511688 5.29127625 -2.27415466 4.30160522 C-2 2 -2 2 0 0 Z " fill="#FCCF65" transform="translate(21,42)"/>
<path d="M0 0 C0.11591817 7.36261724 0.20472648 14.72503734 0.25906086 22.08838272 C0.28514091 25.50765493 0.3205065 28.92630228 0.37719727 32.34521484 C0.44198227 36.27694178 0.4661939 40.20841689 0.48828125 44.140625 C0.51408768 45.36678528 0.5398941 46.59294556 0.56648254 47.85626221 C0.5668602 48.99714294 0.56723785 50.13802368 0.56762695 51.31347656 C0.58428154 52.81905121 0.58428154 52.81905121 0.60127258 54.3550415 C-0.228499 58.00515205 -1.9340759 58.9829021 -5 61 C-7.17637523 62.1745544 -9.38717601 63.28661962 -11.62109375 64.34765625 C-12.55466454 64.79461098 -12.55466454 64.79461098 -13.50709534 65.25059509 C-15.48103487 66.19404675 -17.45908204 67.1284819 -19.4375 68.0625 C-20.76135934 68.69274715 -22.08492987 69.32360134 -23.40820312 69.95507812 C-25.84905238 71.11982695 -28.2917461 72.28029586 -30.73608398 73.43774414 C-32.93612988 74.49078428 -35.11690118 75.58494839 -37.27758789 76.71655273 C-40 78 -40 78 -42.3125 77.75 C-44 77 -44 77 -45 76 C-45.10917833 74.33898053 -45.14906743 72.67334907 -45.16113281 71.00878906 C-45.17074036 69.94388245 -45.1803479 68.87897583 -45.19024658 67.78179932 C-45.1966214 66.04129303 -45.1966214 66.04129303 -45.203125 64.265625 C-45.20882507 63.08031189 -45.21452515 61.89499878 -45.22039795 60.67376709 C-45.22986675 58.15849709 -45.23638935 55.64321457 -45.24023438 53.12792969 C-45.2499235 49.28037777 -45.28092328 45.43336351 -45.3125 41.5859375 C-45.3190313 39.14583652 -45.32428127 36.7057317 -45.328125 34.265625 C-45.3404718 33.1133844 -45.3528186 31.9611438 -45.36553955 30.77398682 C-45.36253845 29.69647156 -45.35953735 28.6189563 -45.35644531 27.50878906 C-45.36009094 26.56360413 -45.36373657 25.61841919 -45.36749268 24.64459229 C-44.84832649 20.90850995 -43.31128201 18.1512775 -40.47338867 15.65966797 C-34.30531171 11.97039936 -27.82890997 8.95625558 -21.28100586 6.01367188 C-19.29984718 5.11928795 -17.32889138 4.20457083 -15.35742188 3.2890625 C-14.08911323 2.71488163 -12.8202516 2.14192035 -11.55078125 1.5703125 C-10.41294189 1.05227051 -9.27510254 0.53422852 -8.1027832 0.00048828 C-4.75450757 -1.0791587 -3.32940249 -0.8121547 0 0 Z " fill="#FBFBFB" transform="translate(118,39)"/>
<path d="M0 0 C1.83834676 0.73226033 3.67689088 1.46402537 5.515625 2.1953125 C6.42248047 2.56172852 7.32933594 2.92814453 8.26367188 3.30566406 C12.23506246 4.8939302 16.2401711 6.3870905 20.25 7.875 C21.5586959 8.36431021 22.86730088 8.85386374 24.17578125 9.34375 C25.08714844 9.6840625 25.99851562 10.024375 26.9375 10.375 C26.9375 11.695 26.9375 13.015 26.9375 14.375 C26.09832031 14.76429687 25.25914063 15.15359375 24.39453125 15.5546875 C23.82541016 15.81950928 23.25628906 16.08433105 22.66992188 16.35717773 C21.36853741 16.96236123 20.06642976 17.5659916 18.76367188 18.16821289 C14.6504017 20.07841935 10.57119735 22.04418848 6.51171875 24.06640625 C5.12666138 24.74823975 5.12666138 24.74823975 3.71362305 25.44384766 C1.89058441 26.34262126 0.07279929 27.25214624 -1.73901367 28.17333984 C-2.58826416 28.58922363 -3.43751465 29.00510742 -4.3125 29.43359375 C-5.06015625 29.80798584 -5.8078125 30.18237793 -6.578125 30.56811523 C-13.15217778 32.70326111 -18.61789587 30.80881438 -24.76953125 28.453125 C-25.57613693 28.15186707 -26.38274261 27.85060913 -27.21379089 27.54022217 C-28.90765041 26.9036895 -30.59930767 26.26126854 -32.28881836 25.61328125 C-34.87778286 24.62393656 -37.47602495 23.66263587 -40.07617188 22.703125 C-41.7245877 22.07978684 -43.37239713 21.45484217 -45.01953125 20.828125 C-46.18510307 20.39974335 -46.18510307 20.39974335 -47.3742218 19.96270752 C-52.72173849 17.8774779 -52.72173849 17.8774779 -54.56518555 15.15917969 C-54.72929932 14.57040039 -54.89341309 13.98162109 -55.0625 13.375 C-49.75509309 10.65458333 -44.42050501 7.99435181 -39.0625 5.375 C-38.21252441 4.95847168 -37.36254883 4.54194336 -36.48681641 4.11279297 C-33.87565814 2.84584907 -31.25273158 1.60715035 -28.625 0.375 C-27.80999023 -0.02259521 -26.99498047 -0.42019043 -26.15527344 -0.82983398 C-16.49150086 -5.28739154 -9.60380739 -3.9825259 0 0 Z " fill="#F9F9F9" transform="translate(81.0625,19.625)"/>
<path d="M0 0 C1.05313385 0.39478546 2.1062677 0.78957092 3.1913147 1.19631958 C5.40712721 2.02983712 7.62083262 2.86897521 9.83251953 3.71337891 C13.23078428 5.00942262 16.6361368 6.28526393 20.04296875 7.55859375 C22.19575849 8.3712153 24.34811807 9.18497754 26.5 10 C27.52282074 10.38340546 28.54564148 10.76681091 29.59945679 11.16183472 C30.53778351 11.52205719 31.47611023 11.88227966 32.44287109 12.25341797 C33.68694229 12.72640823 33.68694229 12.72640823 34.95614624 13.20895386 C36.8515625 14.1328125 36.8515625 14.1328125 37.8515625 16.1328125 C31.9765625 15.2578125 31.9765625 15.2578125 30.8515625 14.1328125 C29.83690918 14.17083984 28.82225586 14.20886719 27.77685547 14.24804688 C23.38957042 14.11924985 20.03026691 12.95642177 16.046875 11.2890625 C14.5612473 10.69649077 13.07556862 10.10404682 11.58984375 9.51171875 C9.28208582 8.57478962 6.97650828 7.63279025 4.67236328 6.68701172 C2.42723223 5.77044572 0.17512547 4.87294466 -2.078125 3.9765625 C-3.09107132 3.5500238 -3.09107132 3.5500238 -4.1244812 3.11486816 C-10.67657408 0.52096966 -16.74193813 -0.04015941 -23.38305664 2.6015625 C-24.82466855 3.26122503 -26.25807679 3.93905393 -27.68359375 4.6328125 C-28.82978432 5.16551758 -28.82978432 5.16551758 -29.99913025 5.70898438 C-32.41092618 6.83434184 -34.81072589 7.98298743 -37.2109375 9.1328125 C-38.85538133 9.90521997 -40.50055817 10.6760689 -42.14648438 11.4453125 C-46.15583102 13.32324256 -50.15460467 15.22212476 -54.1484375 17.1328125 C-53.8184375 18.1228125 -53.4884375 19.1128125 -53.1484375 20.1328125 C-50.63773264 21.32345018 -48.21534926 22.32222315 -45.61328125 23.26953125 C-44.86003067 23.55383499 -44.10678009 23.83813873 -43.33070374 24.13105774 C-40.91966214 25.03825295 -38.50303658 25.92939841 -36.0859375 26.8203125 C-34.45208189 27.43189631 -32.81861274 28.04451364 -31.18554688 28.65820312 C-27.17756607 30.16177696 -23.16450527 31.65098169 -19.1484375 33.1328125 C-20.76244071 34.85052878 -22.43355821 36.51579532 -24.1484375 38.1328125 C-26.51953125 38.0859375 -26.51953125 38.0859375 -29.1484375 37.1328125 C-30.25316406 36.79765625 -31.35789063 36.4625 -32.49609375 36.1171875 C-33.72199219 35.70984375 -34.94789062 35.3025 -36.2109375 34.8828125 C-36.86562012 34.66608887 -37.52030273 34.44936523 -38.19482422 34.22607422 C-43.46474821 32.44726707 -48.52260533 30.31072278 -53.5625 27.953125 C-56.55468208 27.00394337 -58.14392273 27.42450238 -61.1484375 28.1328125 C-61.30043515 35.89216036 -61.40558961 43.6511252 -61.47802734 51.41162109 C-61.50822056 54.05206651 -61.5491794 56.69241147 -61.60107422 59.33251953 C-61.67377093 63.12557737 -61.70787011 66.91731075 -61.734375 70.7109375 C-61.76534271 71.89335022 -61.79631042 73.07576294 -61.82821655 74.29400635 C-61.82947542 77.35192782 -61.7640712 80.13777203 -61.1484375 83.1328125 C-58.66695542 85.92950436 -58.66695542 85.92950436 -55.1484375 87.1328125 C-54.0754541 87.61588867 -53.0024707 88.09896484 -51.89697266 88.59667969 C-50.75534668 89.03657227 -49.6137207 89.47646484 -48.4375 89.9296875 C-47.51800064 90.28743256 -47.51800064 90.28743256 -46.57992554 90.65240479 C-44.6469797 91.40267816 -42.71036571 92.14288951 -40.7734375 92.8828125 C-39.45156593 93.39386704 -38.12994869 93.90557994 -36.80859375 94.41796875 C-33.59144313 95.66386574 -30.37092627 96.90077793 -27.1484375 98.1328125 C-27.1484375 98.7928125 -27.1484375 99.4528125 -27.1484375 100.1328125 C-26.5090625 100.4009375 -25.8696875 100.6690625 -25.2109375 100.9453125 C-23.1484375 102.1328125 -23.1484375 102.1328125 -22.1484375 105.1328125 C-29.98524766 103.03421892 -37.43288508 100.12163286 -44.90844727 96.99926758 C-46.84035965 96.19346803 -48.77632182 95.39804928 -50.71289062 94.60351562 C-67.00003549 87.87738224 -67.00003549 87.87738224 -69.29994202 84.38352966 C-70.36102468 81.56890423 -70.42410971 79.25899859 -70.45483398 76.25024414 C-70.47082138 75.06543961 -70.48680878 73.88063507 -70.50328064 72.65992737 C-70.50864334 71.38383102 -70.51400604 70.10773468 -70.51953125 68.79296875 C-70.52855972 67.47872421 -70.5375882 66.16447968 -70.54689026 64.81040955 C-70.56335897 62.03056383 -70.57107667 59.25083826 -70.57397461 56.47094727 C-70.57936188 52.91524876 -70.61706229 49.3606845 -70.66271877 45.80530643 C-70.6996739 42.40536554 -70.701004 39.00560368 -70.70703125 35.60546875 C-70.72656357 34.33139664 -70.74609589 33.05732452 -70.76622009 31.74464417 C-70.72139484 22.98307139 -70.72139484 22.98307139 -68.03735352 19 C-64.88284165 16.96115044 -61.80443529 15.30635802 -58.3671875 13.78515625 C-57.71649292 13.49333969 -57.06579834 13.20152313 -56.39538574 12.90086365 C-55.01678608 12.28352425 -53.63607542 11.67087991 -52.25341797 11.06268311 C-50.17576625 10.14488492 -48.1083418 9.20727652 -46.04296875 8.26220703 C-42.61427531 6.6949658 -39.17515108 5.1528413 -35.72949219 3.62329102 C-34.32550418 2.99722832 -32.92384717 2.3659154 -31.52441406 1.72973633 C-29.45651139 0.79040894 -27.38169497 -0.13179386 -25.3046875 -1.05078125 C-24.37952332 -1.47719154 -24.37952332 -1.47719154 -23.43566895 -1.91221619 C-14.77446187 -5.68421049 -8.3337861 -3.19485191 0 0 Z " fill="#292726" transform="translate(81.1484375,15.8671875)"/>
<path d="M0 0 C2.65047954 2.65047954 2.27366094 3.92098769 2.32226562 7.6237793 C2.34148071 8.80227951 2.3606958 9.98077972 2.38049316 11.19499207 C2.38899292 12.47513687 2.39749268 13.75528168 2.40625 15.07421875 C2.41765015 16.38654984 2.42905029 17.69888092 2.4407959 19.05097961 C2.46182144 21.83437652 2.47350121 24.61765789 2.48046875 27.40112305 C2.4914048 30.95463138 2.53937741 34.50659371 2.59641266 38.05961895 C2.64282364 41.4602872 2.64657645 44.8607504 2.65625 48.26171875 C2.6809436 49.5317424 2.70563721 50.80176605 2.7310791 52.11027527 C2.68142898 61.98919211 2.68142898 61.98919211 -0.57739258 66.1081543 C-3.8093826 69.17335756 -7.38635846 71.17636177 -11.41796875 73.0078125 C-12.11586014 73.34118622 -12.81375153 73.67455994 -13.53279114 74.01803589 C-15.74390382 75.06962786 -17.96510999 76.09749282 -20.1875 77.125 C-21.65762474 77.820086 -23.12703262 78.51669029 -24.59570312 79.21484375 C-28.0914463 80.87172789 -31.59847168 82.50264035 -35.11120605 84.12313843 C-36.85662954 84.9334411 -38.59422826 85.76054176 -40.33105469 86.58911133 C-41.77399902 87.27009888 -41.77399902 87.27009888 -43.24609375 87.96484375 C-44.46510376 88.54673462 -44.46510376 88.54673462 -45.70874023 89.14038086 C-50.62480284 90.98475555 -55.15525663 90.60236518 -60.0625 89 C-60.701875 88.67 -61.34125 88.34 -62 88 C-58.88957302 87.0762537 -56.17378111 86.9218997 -52.9375 87 C-49.84054943 87.0745131 -47.97924005 86.99308002 -45 86 C-45.495 85.01 -45.495 85.01 -46 84 C-45.01 84 -44.02 84 -43 84 C-42.505 82.515 -42.505 82.515 -42 81 C-39.78198242 79.65307617 -39.78198242 79.65307617 -36.85546875 78.29296875 C-35.78490234 77.78830078 -34.71433594 77.28363281 -33.61132812 76.76367188 C-32.48146484 76.24353516 -31.35160156 75.72339844 -30.1875 75.1875 C-27.99302196 74.1611555 -25.79901018 73.13381348 -23.60546875 72.10546875 C-22.51669434 71.59806152 -21.42791992 71.0906543 -20.30615234 70.56787109 C-15.98349355 68.51794385 -11.71623681 66.36560123 -7.4543457 64.19262695 C-5 63 -5 63 -2 62 C-1.98969254 61.30064835 -1.97938507 60.60129669 -1.96876526 59.88075256 C-1.87094968 53.30286337 -1.76845843 46.7250658 -1.66066074 40.14733219 C-1.60540198 36.76532878 -1.55197744 33.38331676 -1.50268555 30.0012207 C-1.44599054 26.11660573 -1.38142415 22.23214122 -1.31640625 18.34765625 C-1.29133751 16.51800072 -1.29133751 16.51800072 -1.26576233 14.65138245 C-1.24581711 13.53029587 -1.22587189 12.40920929 -1.20532227 11.25415039 C-1.18977798 10.26153702 -1.1742337 9.26892365 -1.15821838 8.24623108 C-1 6 -1 6 0 5 C0.04063832 3.33382885 0.042721 1.66611905 0 0 Z " fill="#2D2D2D" transform="translate(121,34)"/>
<path d="M0 0 C1.05313385 0.39478546 2.1062677 0.78957092 3.1913147 1.19631958 C5.40712721 2.02983712 7.62083262 2.86897521 9.83251953 3.71337891 C13.23078428 5.00942262 16.6361368 6.28526393 20.04296875 7.55859375 C22.19575849 8.3712153 24.34811807 9.18497754 26.5 10 C27.52282074 10.38340546 28.54564148 10.76681091 29.59945679 11.16183472 C30.53778351 11.52205719 31.47611023 11.88227966 32.44287109 12.25341797 C33.68694229 12.72640823 33.68694229 12.72640823 34.95614624 13.20895386 C36.8515625 14.1328125 36.8515625 14.1328125 37.8515625 16.1328125 C31.9765625 15.2578125 31.9765625 15.2578125 30.8515625 14.1328125 C29.83690918 14.17083984 28.82225586 14.20886719 27.77685547 14.24804688 C23.38957042 14.11924985 20.03026691 12.95642177 16.046875 11.2890625 C14.5612473 10.69649077 13.07556862 10.10404682 11.58984375 9.51171875 C9.28208582 8.57478962 6.97650828 7.63279025 4.67236328 6.68701172 C2.42723223 5.77044572 0.17512547 4.87294466 -2.078125 3.9765625 C-2.75342255 3.69220337 -3.42872009 3.40784424 -4.1244812 3.11486816 C-10.39528106 0.63233034 -16.70832898 -0.13005519 -23.02734375 2.59375 C-24.2642108 3.21413853 -25.49230678 3.85232703 -26.7109375 4.5078125 C-31.20322725 6.85161585 -35.31669301 8.52576334 -40.26733398 9.64111328 C-43.96868706 10.60860518 -47.25652308 12.549017 -50.6328125 14.3046875 C-53.1484375 15.1328125 -53.1484375 15.1328125 -55.30566406 14.18457031 C-55.9137793 13.83749023 -56.52189453 13.49041016 -57.1484375 13.1328125 C-51.72967436 10.69515088 -46.30366788 8.27470075 -40.87036133 5.86962891 C-39.02454021 5.04973151 -37.18075472 4.22523487 -35.33911133 3.39599609 C-32.68577366 2.20224493 -30.02546371 1.02543231 -27.36328125 -0.1484375 C-26.13785866 -0.70621887 -26.13785866 -0.70621887 -24.88768005 -1.27526855 C-15.54080773 -5.35230696 -9.23126259 -3.53890975 0 0 Z " fill="#212121" transform="translate(81.1484375,15.8671875)"/>
<path d="M0 0 C2.65047954 2.65047954 2.27366094 3.92098769 2.32226562 7.6237793 C2.34148071 8.80227951 2.3606958 9.98077972 2.38049316 11.19499207 C2.38899292 12.47513687 2.39749268 13.75528168 2.40625 15.07421875 C2.41765015 16.38654984 2.42905029 17.69888092 2.4407959 19.05097961 C2.46182144 21.83437652 2.47350121 24.61765789 2.48046875 27.40112305 C2.4914048 30.95463138 2.53937741 34.50659371 2.59641266 38.05961895 C2.64282364 41.4602872 2.64657645 44.8607504 2.65625 48.26171875 C2.6809436 49.5317424 2.70563721 50.80176605 2.7310791 52.11027527 C2.68145065 61.9848799 2.68145065 61.9848799 -0.84179688 66.23364258 C-3.5679963 68.89907996 -6.38312152 70.71399876 -10 72 C-10.99 71.67 -11.98 71.34 -13 71 C-13 70.34 -13 69.68 -13 69 C-11.38263741 67.6072711 -9.7074998 66.28062485 -8 65 C-7.278125 64.4225 -6.55625 63.845 -5.8125 63.25 C-4 62 -4 62 -2 62 C-1.9845388 60.95097252 -1.9845388 60.95097252 -1.96876526 59.88075256 C-1.87094968 53.30286337 -1.76845843 46.7250658 -1.66066074 40.14733219 C-1.60540198 36.76532878 -1.55197744 33.38331676 -1.50268555 30.0012207 C-1.44599054 26.11660573 -1.38142415 22.23214122 -1.31640625 18.34765625 C-1.29133751 16.51800072 -1.29133751 16.51800072 -1.26576233 14.65138245 C-1.24581711 13.53029587 -1.22587189 12.40920929 -1.20532227 11.25415039 C-1.18977798 10.26153702 -1.1742337 9.26892365 -1.15821838 8.24623108 C-1 6 -1 6 0 5 C0.04063832 3.33382885 0.042721 1.66611905 0 0 Z " fill="#3A3A39" transform="translate(121,34)"/>
<path d="M0 0 C0 0.33 0 0.66 0 1 C-4.62 1 -9.24 1 -14 1 C-14 1.66 -14 2.32 -14 3 C-16.3292043 4.13427397 -18.66280485 5.25740384 -21 6.375 C-21.64839844 6.69210938 -22.29679687 7.00921875 -22.96484375 7.3359375 C-26.32212406 8.93147666 -29.51429014 10.21135381 -33.140625 11.0546875 C-37.66924781 12.16392507 -41.37166894 14.03326785 -45.484375 16.171875 C-48 17 -48 17 -50.15722656 16.05175781 C-50.7653418 15.70467773 -51.37345703 15.35759766 -52 15 C-46.58123686 12.56233838 -41.15523038 10.14188825 -35.72192383 7.73681641 C-33.87610271 6.91691901 -32.03231722 6.09242237 -30.19067383 5.26318359 C-27.53733616 4.06943243 -24.87702621 2.89261981 -22.21484375 1.71875 C-20.98942116 1.16096863 -20.98942116 1.16096863 -19.73924255 0.59191895 C-12.68261112 -2.48613287 -7.31180134 -2.85338589 0 0 Z " fill="#333333" transform="translate(76,14)"/>
<path d="M0 0 C0.66 0 1.32 0 2 0 C1.67 0.99 1.34 1.98 1 3 C0.34 3 -0.32 3 -1 3 C-0.98839844 4.051875 -0.97679687 5.10375 -0.96484375 6.1875 C-0.83104898 25.46440014 -1.47023066 44.73245822 -2 64 C-2.33 64 -2.66 64 -3 64 C-3.06954093 56.24610782 -3.1228319 48.49228883 -3.15543652 40.73816299 C-3.17108596 37.13750434 -3.19231058 33.53705921 -3.22631836 29.93652344 C-3.25893828 26.46113743 -3.27685844 22.98595667 -3.28463173 19.51042938 C-3.29286439 17.54059576 -3.31627973 15.57084459 -3.33988953 13.60113525 C-3.34011612 12.40019226 -3.34034271 11.19924927 -3.34057617 9.96191406 C-3.34723801 8.90490295 -3.35389984 7.84789185 -3.36076355 6.7588501 C-2.9513935 3.62829381 -2.20158497 2.23407428 0 0 Z " fill="#494949" transform="translate(14,34)"/>
<path d="M0 0 C5.65394631 -0.34615998 9.03006806 0.56574762 14 3 C14 3.66 14 4.32 14 5 C14.639375 5.268125 15.27875 5.53625 15.9375 5.8125 C18 7 18 7 19 10 C12.38757278 8.17778624 6.19479329 5.94776396 0 3 C0 2.01 0 1.02 0 0 Z " fill="#252427" transform="translate(40,111)"/>
<path d="M0 0 C1.33421702 2.66843403 1.11256625 4.68362403 1.09765625 7.67138672 C1.09435303 8.85957001 1.0910498 10.0477533 1.08764648 11.27194214 C1.07934814 12.56149811 1.0710498 13.85105408 1.0625 15.1796875 C1.05671492 17.19549592 1.05093539 19.21130437 1.04548645 21.22711372 C1.0323173 25.49416441 1.01018623 29.76117804 0.98962402 34.02819824 C0.96988243 38.20794443 0.95424366 42.38766692 0.94406128 46.56744766 C0.93758689 48.52837117 0.92501168 50.48927146 0.91235352 52.45016479 C0.90905029 53.6446524 0.90574707 54.83914001 0.90234375 56.06982422 C0.89710693 57.12080292 0.89187012 58.17178162 0.88647461 59.25460815 C0.98668049 61.67789348 1.29951592 63.68910372 2 66 C0.52227783 64.87600708 0.52227783 64.87600708 -1 63 C-1.36749268 60.29220581 -1.36749268 60.29220581 -1.35644531 56.98388672 C-1.35944641 55.74605438 -1.36244751 54.50822205 -1.36553955 53.23287964 C-1.35353569 51.88181136 -1.34105279 50.53074726 -1.328125 49.1796875 C-1.3250673 47.7963176 -1.32319126 46.41294462 -1.32244873 45.02957153 C-1.31784798 42.13271272 -1.30342875 39.23613225 -1.28125 36.33935547 C-1.25291486 32.61889108 -1.24203306 28.89864546 -1.2375679 25.17808342 C-1.23341998 22.32314856 -1.22360866 19.46825827 -1.21169281 16.6133461 C-1.20598116 15.24096154 -1.20122543 13.86857267 -1.19742584 12.49618149 C-1.19058275 10.58320305 -1.17605621 8.67025668 -1.16113281 6.75732422 C-1.15430481 5.6671701 -1.14747681 4.57701599 -1.14044189 3.4538269 C-1 1 -1 1 0 0 Z " fill="#0F0F0F" transform="translate(10,36)"/>
<path d="M0 0 C2.24263373 3.36395059 2.25237629 4.48383335 2.25878906 8.41772461 C2.26509338 9.52574936 2.27139771 10.63377411 2.27789307 11.77537537 C2.2738446 12.97227493 2.26979614 14.1691745 2.265625 15.40234375 C2.26753845 16.63159073 2.2694519 17.86083771 2.27142334 19.12733459 C2.27313444 22.39573201 2.26507779 25.6639398 2.25390625 28.93231201 C2.24744097 32.25112287 2.26277471 35.5698786 2.2734375 38.88867188 C2.27211573 41.4140635 2.26955298 43.93945484 2.265625 46.46484375 C2.26967346 47.65971909 2.27372192 48.85459442 2.27789307 50.0856781 C2.27158875 51.19685501 2.26528442 52.30803192 2.25878906 53.45288086 C2.25719788 54.42978378 2.25560669 55.40668671 2.25396729 56.41319275 C1.99267307 59.07462916 1.35721826 60.71921404 0 63 C-0.33 62.34 -0.66 61.68 -1 61 C-0.67 60.01 -0.34 59.02 0 58 C0.08852819 56.11343185 0.11762222 54.22384476 0.11352539 52.33520508 C0.11344986 51.17422806 0.11337433 50.01325104 0.11329651 48.8170929 C0.10813522 47.56389755 0.10297394 46.31070221 0.09765625 45.01953125 C0.09553383 43.09484261 0.09553383 43.09484261 0.09336853 41.13127136 C0.08955405 37.72329759 0.07973291 34.31536657 0.06866455 30.90740967 C0.05842743 27.42851337 0.05386598 23.94961015 0.04882812 20.47070312 C0.03810967 13.64711788 0.02104609 6.82356099 0 0 Z " fill="#777777" transform="translate(124,35)"/>
<path d="M0 0 C3.21068831 1.09739795 6.4180847 2.20412941 9.625 3.3125 C10.98044922 3.7755957 10.98044922 3.7755957 12.36328125 4.24804688 C17.09890353 5.88995971 21.58746759 7.61781888 26 10 C25.01 10.33 24.02 10.66 23 11 C22.4225 10.690625 21.845 10.38125 21.25 10.0625 C18.92474037 8.76068846 18.92474037 8.76068846 15.75 9.0625 C10.14736911 8.96912282 5.83231412 7.51165915 1.5 3.9375 C0 2 0 2 0 0 Z " fill="#3C3C3C" transform="translate(93,21)"/>
<path d="M0 0 C-6.40228286 5.08899406 -13.73941769 8.80100847 -22.05078125 8.30859375 C-24.56819677 7.910045 -26.73753063 7.16772613 -29 6 C-25.88957302 5.0762537 -23.17378111 4.9218997 -19.9375 5 C-16.84054943 5.0745131 -14.97924005 4.99308002 -12 4 C-12.33 3.34 -12.66 2.68 -13 2 C-8.50343896 -0.24828052 -4.92127034 -0.16682272 0 0 Z " fill="#484848" transform="translate(88,116)"/>
<path d="M0 0 C4.48993869 0.58652352 8.22543184 1.7643538 12.375 3.5625 C13.43460938 4.01753906 14.49421875 4.47257812 15.5859375 4.94140625 C16.38257812 5.29074219 17.17921875 5.64007813 18 6 C16.68 6.33 15.36 6.66 14 7 C14 7.66 14 8.32 14 9 C11.23723823 8.47731534 8.6739124 7.89130413 6 7 C5.33333333 5.66666667 4.66666667 4.33333333 4 3 C1.96682993 1.26574227 1.96682993 1.26574227 0 0 Z " fill="#212229" transform="translate(26,104)"/>
<path d="M0 0 C1.98 0 3.96 0 6 0 C6.33 0.99 6.66 1.98 7 3 C6.06027344 3.50660156 6.06027344 3.50660156 5.1015625 4.0234375 C4.28429687 4.46945313 3.46703125 4.91546875 2.625 5.375 C1.81289062 5.81585938 1.00078125 6.25671875 0.1640625 6.7109375 C-2.10814302 7.9443893 -2.10814302 7.9443893 -4 10 C-5 9 -5 9 -5.375 6.625 C-5.25125 5.75875 -5.1275 4.8925 -5 4 C-2.5 2.25 -2.5 2.25 0 1 C0 0.67 0 0.34 0 0 Z " fill="#303030" transform="translate(80,46)"/>
<path d="M0 0 C-1.69637825 3.3927565 -5.47851108 4.2740609 -8.8125 5.75 C-9.90014648 6.26240234 -9.90014648 6.26240234 -11.00976562 6.78515625 C-11.71423828 7.09839844 -12.41871094 7.41164063 -13.14453125 7.734375 C-13.78753174 8.02538086 -14.43053223 8.31638672 -15.09301758 8.61621094 C-17.64713816 9.13023956 -18.8294733 8.33153755 -21 7 C-18.06963123 5.62999799 -15.12973086 4.28181448 -12.1875 2.9375 C-11.35412109 2.54755859 -10.52074219 2.15761719 -9.66210938 1.75585938 C-8.45844727 1.20961914 -8.45844727 1.20961914 -7.23046875 0.65234375 C-6.49207764 0.31195068 -5.75368652 -0.02844238 -4.99291992 -0.37915039 C-3 -1 -3 -1 0 0 Z " fill="#444444" transform="translate(45,22)"/>
<path d="M0 0 C0.66 0.309375 1.32 0.61875 2 0.9375 C5.02740415 2.00970564 7.81603811 2.3225874 10.99609375 2.6484375 C13.97891471 3.17173942 16.39636766 4.5029114 19 6 C19 6.99 19 7.98 19 9 C12.59597078 7.26776259 6.79244553 5.26483294 1 2 C0.67 1.34 0.34 0.68 0 0 Z " fill="#393937" transform="translate(13,101)"/>
<path d="M0 0 C1.69962891 0.07927734 1.69962891 0.07927734 3.43359375 0.16015625 C7.33351683 1.129051 8.41092188 2.63347955 10.5625 5.9375 C7.61590937 5.52634782 4.99068161 5.12265961 2.25 3.9375 C-1.56478252 2.51804604 -5.40063714 2.27170651 -9.4375 1.9375 C-5.8050972 -0.48410187 -4.28962016 -0.26779695 0 0 Z " fill="#1F1F1F" transform="translate(71.4375,14.0625)"/>
<path d="M0 0 C-0.33 1.32 -0.66 2.64 -1 4 C-1.99 4 -2.98 4 -4 4 C-4 4.66 -4 5.32 -4 6 C-7.3 6.33 -10.6 6.66 -14 7 C-11.28443311 4.28443311 -9.8303737 3.2713798 -6.4375 1.8125 C-5.65246094 1.46832031 -4.86742188 1.12414062 -4.05859375 0.76953125 C-2 0 -2 0 0 0 Z " fill="#212121" transform="translate(92,110)"/>
<path d="M0 0 C0 0.33 0 0.66 0 1 C-1.10408203 0.98259766 -1.10408203 0.98259766 -2.23046875 0.96484375 C-3.20628906 0.95582031 -4.18210937 0.94679688 -5.1875 0.9375 C-6.15042969 0.92589844 -7.11335938 0.91429687 -8.10546875 0.90234375 C-10.99754816 0.90774067 -10.99754816 0.90774067 -13.73828125 1.62890625 C-14.48464844 1.75136719 -15.23101562 1.87382812 -16 2 C-16.66 1.34 -17.32 0.68 -18 0 C-11.7477781 -3.03138031 -6.36127273 -2.4824479 0 0 Z " fill="#585858" transform="translate(76,14)"/>
<path d="M0 0 C0.5775 0.37125 1.155 0.7425 1.75 1.125 C0.96625 1.5375 0.1825 1.95 -0.625 2.375 C-3.30891656 4.1642777 -4.13098949 5.17488139 -5.25 8.125 C-6.57 6.475 -7.89 4.825 -9.25 3.125 C-2.88157895 -1.12061404 -2.88157895 -1.12061404 0 0 Z " fill="#2C2C2C" transform="translate(106.25,35.875)"/>
<path d="M0 0 C0.671875 2.08203125 0.671875 2.08203125 1 4 C-0.62723299 3.54965877 -2.25173664 3.08944646 -3.875 2.625 C-4.77992187 2.36976562 -5.68484375 2.11453125 -6.6171875 1.8515625 C-9 1 -9 1 -11 -1 C-6.74351821 -2.25190641 -4.0124261 -1.91502155 0 0 Z " fill="#403F3C" transform="translate(58,117)"/>
<path d="M0 0 C0.66 0 1.32 0 2 0 C1.67 0.99 1.34 1.98 1 3 C0.34 3 -0.32 3 -1 3 C-1 9.93 -1 16.86 -1 24 C-1.33 24 -1.66 24 -2 24 C-2.05787784 20.37506666 -2.0935542 16.75025143 -2.125 13.125 C-2.14175781 12.09246094 -2.15851562 11.05992188 -2.17578125 9.99609375 C-2.18222656 9.00996094 -2.18867188 8.02382813 -2.1953125 7.0078125 C-2.20578613 6.09660645 -2.21625977 5.18540039 -2.22705078 4.24658203 C-2 2 -2 2 0 0 Z " fill="#39393B" transform="translate(14,34)"/>
<path d="M0 0 C5.6143991 1.56448671 10.86810338 3.16395187 16 6 C12.58981018 7.13672994 11.83271596 6.85110129 8.5625 5.6875 C7.80066406 5.42324219 7.03882812 5.15898437 6.25390625 4.88671875 C4.09522161 4.03746154 2.05566265 3.07231605 0 2 C0 1.34 0 0.68 0 0 Z " fill="#434343" transform="translate(103,25)"/>
<path d="M0 0 C0.66 0.33 1.32 0.66 2 1 C1.67 1.99 1.34 2.98 1 4 C-2.3 4.66 -5.6 5.32 -9 6 C-9 5.34 -9 4.68 -9 4 C-7.54618103 3.30300448 -6.08677047 2.61766134 -4.625 1.9375 C-3.40683594 1.36322266 -3.40683594 1.36322266 -2.1640625 0.77734375 C-1.44992188 0.52082031 -0.73578125 0.26429687 0 0 Z " fill="#212121" transform="translate(109,101)"/>
<path d="M0 0 C2 1 2 1 2 1 Z M-2 1 C-1.34 1.33 -0.68 1.66 0 2 C-1 5 -1 5 -3.9375 6.6875 C-7 8 -7 8 -9 8 C-9 7.34 -9 6.68 -9 6 C-8.01 6 -7.02 6 -6 6 C-5.896875 5.360625 -5.79375 4.72125 -5.6875 4.0625 C-5.460625 3.381875 -5.23375 2.70125 -5 2 C-4.01 1.67 -3.02 1.34 -2 1 Z " fill="#383838" transform="translate(97,108)"/>
<path d="M0 0 C-2.93828597 2.50298434 -5.17902761 3.46930939 -9 4 C-8.625 2.0625 -8.625 2.0625 -8 0 C-5.13822943 -1.43088528 -3.06624227 -0.59991697 0 0 Z " fill="#242423" transform="translate(53,20)"/>
<path d="M0 0 C0.928125 0.20625 1.85625 0.4125 2.8125 0.625 C-0.12578597 3.12798434 -2.36652761 4.09430939 -6.1875 4.625 C-6.1875 3.635 -6.1875 2.645 -6.1875 1.625 C-3.1875 -0.375 -3.1875 -0.375 0 0 Z " fill="#4F4F4F" transform="translate(114.1875,101.375)"/>
<path d="M0 0 C3.3 0.99 6.6 1.98 10 3 C8.02 3.99 8.02 3.99 6 5 C2.75 3.625 2.75 3.625 0 2 C0 1.34 0 0.68 0 0 Z " fill="#434343" transform="translate(79,16)"/>
<path d="M0 0 C-2.62198774 2.15377564 -4.64404172 3.40072174 -8 4 C-8 3.34 -8 2.68 -8 2 C-8.66 1.67 -9.32 1.34 -10 1 C-6.78548731 -0.60725635 -3.56387464 -0.05748185 0 0 Z " fill="#4F4F4F" transform="translate(88,116)"/>
<path d="M0 0 C4.44355888 0.02987266 7.96999406 0.17957355 12.01171875 2.265625 C9.01171875 3.265625 9.01171875 3.265625 6.01171875 2.265625 C4.28376523 2.19759533 2.5533651 2.18066855 0.82421875 2.203125 C-0.07683594 2.21214844 -0.97789063 2.22117187 -1.90625 2.23046875 C-2.93685547 2.24787109 -2.93685547 2.24787109 -3.98828125 2.265625 C-1.98828125 0.265625 -1.98828125 0.265625 0 0 Z " fill="#525252" transform="translate(63.98828125,9.734375)"/>
<path d="M0 0 C1.65 0 3.3 0 5 0 C4 3 4 3 2.125 4.25 C0 5 0 5 -3 4 C-1.68 3.34 -0.36 2.68 1 2 C0.67 1.34 0.34 0.68 0 0 Z " fill="#383838" transform="translate(75,118)"/>
<path d="M0 0 C1.98 0 3.96 0 6 0 C6 0.99 6 1.98 6 3 C2.25 4.125 2.25 4.125 0 3 C0 2.01 0 1.02 0 0 Z " fill="#2B2A2C" transform="translate(40,111)"/>
<path d="M0 0 C4.29 0.33 8.58 0.66 13 1 C8.81924919 3.0903754 8.41186737 3.22667078 4.25 2.125 C3.45078125 1.92132813 2.6515625 1.71765625 1.828125 1.5078125 C0.92320313 1.25644531 0.92320313 1.25644531 0 1 C0 0.67 0 0.34 0 0 Z " fill="#4A4A4A" transform="translate(61,124)"/>
<path d="M0 0 C0.66 0.33 1.32 0.66 2 1 C0.56988027 1.86646667 -0.86940619 2.71781829 -2.3125 3.5625 C-3.51326172 4.27599609 -3.51326172 4.27599609 -4.73828125 5.00390625 C-7 6 -7 6 -10 5 C-8.38007835 4.13624104 -6.75388139 3.28424146 -5.125 2.4375 C-4.22007813 1.96183594 -3.31515625 1.48617187 -2.3828125 0.99609375 C-1.20332031 0.50302734 -1.20332031 0.50302734 0 0 Z " fill="#3E3E3E" transform="translate(115,104)"/>
<path d="M0 0 C-2.8125 1.5625 -2.8125 1.5625 -6 3 C-6.99 2.67 -7.98 2.34 -9 2 C-3.375 -1.125 -3.375 -1.125 0 0 Z " fill="#3B3B3B" transform="translate(30,26)"/>
<path d="M0 0 C0 3 0 3 -1.5 4.6875 C-1.995 5.120625 -2.49 5.55375 -3 6 C-3.66 5.67 -4.32 5.34 -5 5 C-3.35 3.35 -1.7 1.7 0 0 Z " fill="#3E3E3E" transform="translate(122,98)"/>
<path d="M0 0 C5.75 0.75 5.75 0.75 8 3 C2.25 2.25 2.25 2.25 0 0 Z " fill="#555555" transform="translate(21,108)"/>
<path d="M0 0 C-1.8125 1.0625 -1.8125 1.0625 -4 2 C-4.99 1.67 -5.98 1.34 -7 1 C-3.375 -1.125 -3.375 -1.125 0 0 Z " fill="#2A2A2A" transform="translate(58,14)"/>
<path d="M0 0 C2.97 0.495 2.97 0.495 6 1 C5.01 1.33 4.02 1.66 3 2 C2.01 1.34 1.02 0.68 0 0 Z " fill="#363636" transform="translate(100,22)"/>
<path d="M0 0 C2.125 0.375 2.125 0.375 4 1 C2.02 1.33 0.04 1.66 -2 2 C-1.34 1.34 -0.68 0.68 0 0 Z " fill="#5B5B5B" transform="translate(34,22)"/>
<path d="M0 0 C2.475 0.495 2.475 0.495 5 1 C4.01 1.33 3.02 1.66 2 2 C1.34 1.34 0.68 0.68 0 0 Z " fill="#2D2D2D" transform="translate(56,122)"/>
<path d="M0 0 C2.475 0.495 2.475 0.495 5 1 C4.01 1.33 3.02 1.66 2 2 C1.34 1.34 0.68 0.68 0 0 Z " fill="#3D3D3D" transform="translate(49,119)"/>
<path d="M0 0 C2.475 0.495 2.475 0.495 5 1 C4.01 1.33 3.02 1.66 2 2 C1.34 1.34 0.68 0.68 0 0 Z " fill="#272727" transform="translate(44,117)"/>
<path d="M0 0 C2.475 0.495 2.475 0.495 5 1 C4.01 1.33 3.02 1.66 2 2 C1.34 1.34 0.68 0.68 0 0 Z " fill="#454545" transform="translate(37,114)"/>
<path d="M0 0 C2.475 0.495 2.475 0.495 5 1 C4.01 1.33 3.02 1.66 2 2 C1.34 1.34 0.68 0.68 0 0 Z " fill="#2E2E2E" transform="translate(109,25)"/>
<path d="M0 0 C2.475 0.495 2.475 0.495 5 1 C4.01 1.33 3.02 1.66 2 2 C1.34 1.34 0.68 0.68 0 0 Z " fill="#535353" transform="translate(76,13)"/>
<path d="M0 0 C1.32 0.33 2.64 0.66 4 1 C3.01 1.495 3.01 1.495 2 2 C1.34 1.34 0.68 0.68 0 0 Z " fill="#212121" transform="translate(114,27)"/>
<path d="M0 0 C0.99 0.33 1.98 0.66 3 1 C2.01 1 1.02 1 0 1 C0 0.67 0 0.34 0 0 Z " fill="#6A6A6A" transform="translate(15,105)"/>
<path d="M0 0 C0.99 0.495 0.99 0.495 2 1 C1.67 1.66 1.34 2.32 1 3 C0.67 2.01 0.34 1.02 0 0 Z " fill="#303030" transform="translate(122,32)"/>
<path d="M0 0 C0.99 0.33 1.98 0.66 3 1 C2.01 1 1.02 1 0 1 C0 0.67 0 0.34 0 0 Z " fill="#252525" transform="translate(118,29)"/>
<path d="M0 0 C3 1 3 1 3 1 Z " fill="#393939" transform="translate(32,112)"/>
<path d="M0 0 C3 1 3 1 3 1 Z " fill="#7F7F7F" transform="translate(18,107)"/>
<path d="M0 0 C3 1 3 1 3 1 Z " fill="#7F7F7F" transform="translate(106,24)"/>
<path d="M0 0 C3 1 3 1 3 1 Z " fill="#2A2A2A" transform="translate(97,21)"/>
<path d="M0 0 C3 1 3 1 3 1 Z " fill="#1C1C1C" transform="translate(94,20)"/>
<path d="M0 0 C3 1 3 1 3 1 Z " fill="#393939" transform="translate(91,19)"/>
<path d="M0 0 C3 1 3 1 3 1 Z " fill="#111111" transform="translate(42,19)"/>
<path d="M0 0 C3 1 3 1 3 1 Z " fill="#404040" transform="translate(86,17)"/>
<path d="M0 0 C3 1 3 1 3 1 Z " fill="#404040" transform="translate(81,15)"/>
<path d="M0 0 C2 1 2 1 2 1 Z " fill="#353535" transform="translate(74,124)"/>
<path d="M0 0 C2 1 2 1 2 1 Z " fill="#323232" transform="translate(76,123)"/>
<path d="M0 0 C2 1 2 1 2 1 Z " fill="#434343" transform="translate(78,122)"/>
<path d="M0 0 C2 1 2 1 2 1 Z " fill="#414141" transform="translate(80,121)"/>
<path d="M0 0 C2 1 2 1 2 1 Z " fill="#414141" transform="translate(54,121)"/>
<path d="M0 0 C2 1 2 1 2 1 Z " fill="#2A2A2A" transform="translate(82,120)"/>
<path d="M0 0 C2 1 2 1 2 1 Z " fill="#2A2A2A" transform="translate(84,119)"/>
<path d="M0 0 C2 1 2 1 2 1 Z " fill="#2A2A2A" transform="translate(86,118)"/>
<path d="M0 0 C2 1 2 1 2 1 Z " fill="#383838" transform="translate(88,117)"/>
<path d="M0 0 C2 1 2 1 2 1 Z " fill="#414141" transform="translate(90,116)"/>
<path d="M0 0 C2 1 2 1 2 1 Z " fill="#404040" transform="translate(42,116)"/>
<path d="M0 0 C2 1 2 1 2 1 Z " fill="#333333" transform="translate(92,115)"/>
<path d="M0 0 C2 1 2 1 2 1 Z " fill="#333333" transform="translate(94,114)"/>
<path d="M0 0 C2 1 2 1 2 1 Z " fill="#202020" transform="translate(96,113)"/>
<path d="M0 0 C2 1 2 1 2 1 Z " fill="#333333" transform="translate(35,113)"/>
<path d="M0 0 C2 1 2 1 2 1 Z " fill="#404040" transform="translate(98,112)"/>
<path d="M0 0 C2 1 2 1 2 1 Z " fill="#2A2A2A" transform="translate(100,111)"/>
<path d="M0 0 C2 1 2 1 2 1 Z " fill="#4A4A4A" transform="translate(30,111)"/>
<path d="M0 0 C2 1 2 1 2 1 Z " fill="#404040" transform="translate(102,110)"/>
<path d="M0 0 C2 1 2 1 2 1 Z " fill="#2A2A2A" transform="translate(15,31)"/>
<path d="M0 0 C2 1 2 1 2 1 Z " fill="#454545" transform="translate(17,30)"/>
<path d="M0 0 C2 1 2 1 2 1 Z " fill="#323232" transform="translate(19,29)"/>
<path d="M0 0 C2 1 2 1 2 1 Z " fill="#404040" transform="translate(30,24)"/>
<path d="M0 0 C2 1 2 1 2 1 Z " fill="#7F7F7F" transform="translate(38,21)"/>
<path d="M0 0 C2 1 2 1 2 1 Z " fill="#9F9F9F" transform="translate(40,20)"/>
<path d="M0 0 C2 1 2 1 2 1 Z " fill="#2B2B2B" transform="translate(89,18)"/>
<path d="M0 0 C2 1 2 1 2 1 Z " fill="#333333" transform="translate(45,18)"/>
<path d="M0 0 C2 1 2 1 2 1 Z " fill="#333333" transform="translate(47,17)"/>
<path d="M0 0 C2 1 2 1 2 1 Z " fill="#414141" transform="translate(84,16)"/>
<path d="M0 0 C2 1 2 1 2 1 Z " fill="#4E4E4E" transform="translate(49,16)"/>
<path d="M0 0 C2 1 2 1 2 1 Z " fill="#242424" transform="translate(58,12)"/>
<path d="" fill="#404040" transform="translate(0,0)"/>
<path d="" fill="#333333" transform="translate(0,0)"/>
<path d="" fill="#555555" transform="translate(0,0)"/>
<path d="" fill="#494949" transform="translate(0,0)"/>
<path d="" fill="#404040" transform="translate(0,0)"/>
<path d="" fill="#404040" transform="translate(0,0)"/>
<path d="" fill="#494949" transform="translate(0,0)"/>
<path d="" fill="#666666" transform="translate(0,0)"/>
</svg>
